<svg width="32" height="32" viewBox="0 0 100 100" xmlns="http://www.w3.org/2000/svg">
  <!-- Background -->
  <rect width="100" height="100" fill="white"/>

  <!-- Question mark dot -->
  <circle cx="50" cy="25" r="3" fill="black"/>

  <!-- Question mark curve -->
  <path d="M50 35 Q45 30 40 35 Q40 40 45 40 Q50 40 50 45" stroke="black" stroke-width="2" fill="none"/>

  <!-- Head circle -->
  <circle cx="50" cy="50" r="12" stroke="black" stroke-width="3" fill="none"/>

  <!-- Heart in the middle -->
  <path d="M45 48 Q45 45 48 45 Q50 45 50 48 Q50 45 53 45 Q55 45 55 48 Q55 52 50 55 Q45 52 45 48" fill="black"/>

  <!-- Body -->
  <path d="M50 62 L50 85 Q50 90 45 85 L40 80" stroke="black" stroke-width="3" fill="none"/>
  <path d="M50 62 L55 75 Q60 80 55 85 L50 85" stroke="black" stroke-width="3" fill="none"/>

  <!-- Text -->
  <text x="50" y="98" text-anchor="middle" font-family="Arial, sans-serif" font-size="8" font-weight="bold">SMARAN.AI</text>
</svg>
